<?xml version="1.0" encoding="UTF-8"?>
<svg xmlns="http://www.w3.org/2000/svg" xmlns:xlink="http://www.w3.org/1999/xlink"
     width="42240.0" height="25440.0" viewBox="-21120.0 -12720.0 42240.0 25440.0">
<defs>
<style type="text/css">
.l0d0 {fill: black; stroke: blue;}
</style>
</defs>
<rect x="-21120.0" y="-12720.0" width="42240.0" height="25440.0" fill="blue" stroke="none"/>
<g id="extract" transform="scale(1 -1)">
<polygon class="l0d0" points="19200.0,10800.0 19200.0,8300.0 18700.0,8300.0 18700.0,10300.0 16700.0,10300.0 16700.0,10800.0"/>
<polygon class="l0d0" points="-19200.0,10800.0 -19200.0,8300.0 -18700.0,8300.0 -18700.0,10300.0 -16700.0,10300.0 -16700.0,10800.0"/>
<polygon class="l0d0" points="19200.0,-10800.0 19200.0,-8300.0 18700.0,-8300.0 18700.0,-10300.0 16700.0,-10300.0 16700.0,-10800.0"/>
<polygon class="l0d0" points="-19200.0,-10800.0 -19200.0,-8300.0 -18700.0,-8300.0 -18700.0,-10300.0 -16700.0,-10300.0 -16700.0,-10800.0"/>
<polygon class="l0d0" points="-17450.0,-10100.0 -18200.0,-10100.0 -18500.0,-9800.0 -18500.0,-9350.0 -18200.0,-9050.0 -17750.0,-9050.0 -17750.0,-8600.0 -17450.0,-8600.0 -17450.0,-9500.0 -17750.0,-9500.0 -17750.0,-9350.0 -18050.0,-9350.0 -18200.0,-9500.0 -18200.0,-9650.0 -18050.0,-9800.0 -17750.0,-9800.0 -17750.0,-9650.0 -17450.0,-9650.0 -17450.0,-10100.0"/>
<polygon class="l0d0" points="-16550.0,-9500.0 -16550.0,-9350.0 -16850.0,-9350.0 -17000.0,-9500.0 -17000.0,-10100.0 -17300.0,-10100.0 -17300.0,-9050.0 -17000.0,-9050.0 -17000.0,-9200.0 -16850.0,-9050.0 -16400.0,-9050.0 -16250.0,-9200.0 -16250.0,-9500.0 -16550.0,-9500.0"/>
<polygon class="l0d0" points="-15050.0,-9800.0 -15350.0,-10100.0 -15800.0,-10100.0 -16100.0,-9800.0 -16100.0,-9350.0 -15800.0,-9050.0 -15350.0,-9050.0 -15050.0,-9350.0 -15050.0,-9500.0 -15350.0,-9500.0 -15500.0,-9350.0 -15650.0,-9350.0 -15800.0,-9500.0 -15800.0,-9650.0 -15650.0,-9800.0 -15500.0,-9800.0 -15350.0,-9650.0 -15050.0,-9650.0 -15050.0,-9800.0"/>
<polygon class="l0d0" points="-14000.0,-9200.0 -14150.0,-9200.0 -14150.0,-8900.0 -13850.0,-8600.0 -13700.0,-8600.0 -13700.0,-9800.0 -13550.0,-9800.0 -13550.0,-10100.0 -14150.0,-10100.0 -14150.0,-9800.0 -14000.0,-9800.0 -14000.0,-9200.0 -14000.0,-9200.0"/>
<polygon class="l0d0" points="-13100.0,-9800.0 -13100.0,-10100.0 -13400.0,-10100.0 -13400.0,-9800.0 -13100.0,-9800.0"/>
<polygon class="l0d0" points="-12800.0,-9200.0 -12950.0,-9200.0 -12950.0,-8900.0 -12650.0,-8600.0 -12500.0,-8600.0 -12500.0,-9800.0 -12350.0,-9800.0 -12350.0,-10100.0 -12950.0,-10100.0 -12950.0,-9800.0 -12800.0,-9800.0 -12800.0,-9200.0 -12800.0,-9200.0"/>
<polygon class="l0d0" points="-14750.0,-2000.0 -14750.0,-5000.0 -15000.0,-5000.0 -15000.0,-2000.0"/>
<polygon class="l0d0" points="-13750.0,-4000.0 -13750.0,-5000.0 -14000.0,-5000.0 -14000.0,-4000.0"/>
<polygon class="l0d0" points="-12750.0,-4000.0 -12750.0,-5000.0 -13000.0,-5000.0 -13000.0,-4000.0"/>
<polygon class="l0d0" points="-11750.0,-4000.0 -11750.0,-5000.0 -12000.0,-5000.0 -12000.0,-4000.0"/>
<polygon class="l0d0" points="-10750.0,-4000.0 -10750.0,-5000.0 -11000.0,-5000.0 -11000.0,-4000.0"/>
<polygon class="l0d0" points="-9750.0,-3000.0 -9750.0,-5000.0 -10000.0,-5000.0 -10000.0,-3000.0"/>
<polygon class="l0d0" points="-8750.0,-4000.0 -8750.0,-5000.0 -9000.0,-5000.0 -9000.0,-4000.0"/>
<polygon class="l0d0" points="-7750.0,-4000.0 -7750.0,-5000.0 -8000.0,-5000.0 -8000.0,-4000.0"/>
<polygon class="l0d0" points="-6750.0,-4000.0 -6750.0,-5000.0 -7000.0,-5000.0 -7000.0,-4000.0"/>
<polygon class="l0d0" points="-5750.0,-4000.0 -5750.0,-5000.0 -6000.0,-5000.0 -6000.0,-4000.0"/>
<polygon class="l0d0" points="-4750.0,-2000.0 -4750.0,-5000.0 -5000.0,-5000.0 -5000.0,-2000.0"/>
<polygon class="l0d0" points="-3750.0,-4000.0 -3750.0,-5000.0 -4000.0,-5000.0 -4000.0,-4000.0"/>
<polygon class="l0d0" points="-2750.0,-4000.0 -2750.0,-5000.0 -3000.0,-5000.0 -3000.0,-4000.0"/>
<polygon class="l0d0" points="-1750.0,-4000.0 -1750.0,-5000.0 -2000.0,-5000.0 -2000.0,-4000.0"/>
<polygon class="l0d0" points="-750.0,-4000.0 -750.0,-5000.0 -1000.0,-5000.0 -1000.0,-4000.0"/>
<polygon class="l0d0" points="250.0,-3000.0 250.0,-5000.0 0.0,-5000.0 0.0,-3000.0"/>
<polygon class="l0d0" points="1250.0,-4000.0 1250.0,-5000.0 1000.0,-5000.0 1000.0,-4000.0"/>
<polygon class="l0d0" points="2250.0,-4000.0 2250.0,-5000.0 2000.0,-5000.0 2000.0,-4000.0"/>
<polygon class="l0d0" points="3250.0,-4000.0 3250.0,-5000.0 3000.0,-5000.0 3000.0,-4000.0"/>
<polygon class="l0d0" points="4250.0,-4000.0 4250.0,-5000.0 4000.0,-5000.0 4000.0,-4000.0"/>
<polygon class="l0d0" points="5250.0,-2000.0 5250.0,-5000.0 5000.0,-5000.0 5000.0,-2000.0"/>
<polygon class="l0d0" points="6250.0,-4000.0 6250.0,-5000.0 6000.0,-5000.0 6000.0,-4000.0"/>
<polygon class="l0d0" points="7250.0,-4000.0 7250.0,-5000.0 7000.0,-5000.0 7000.0,-4000.0"/>
<polygon class="l0d0" points="8250.0,-4000.0 8250.0,-5000.0 8000.0,-5000.0 8000.0,-4000.0"/>
<polygon class="l0d0" points="9250.0,-4000.0 9250.0,-5000.0 9000.0,-5000.0 9000.0,-4000.0"/>
<polygon class="l0d0" points="10250.0,-3000.0 10250.0,-5000.0 10000.0,-5000.0 10000.0,-3000.0"/>
<polygon class="l0d0" points="11250.0,-4000.0 11250.0,-5000.0 11000.0,-5000.0 11000.0,-4000.0"/>
<polygon class="l0d0" points="12250.0,-4000.0 12250.0,-5000.0 12000.0,-5000.0 12000.0,-4000.0"/>
<polygon class="l0d0" points="13250.0,-4000.0 13250.0,-5000.0 13000.0,-5000.0 13000.0,-4000.0"/>
<polygon class="l0d0" points="14250.0,-4000.0 14250.0,-5000.0 14000.0,-5000.0 14000.0,-4000.0"/>
<polygon class="l0d0" points="15250.0,-2000.0 15250.0,-5000.0 15000.0,-5000.0 15000.0,-2000.0"/>
<polygon class="l0d0" points="-17750.0,3250.0 -17250.0,3750.0 -16750.0,3750.0 -16500.0,3500.0 -16250.0,3750.0 -15750.0,3750.0 -15250.0,3250.0 -15250.0,2500.0 -15750.0,2000.0 -16000.0,2000.0 -16000.0,2500.0 -15750.0,2750.0 -15750.0,3000.0 -16000.0,3250.0 -16250.0,3000.0 -16750.0,3000.0 -17000.0,3250.0 -17250.0,3000.0 -17250.0,2750.0 -17000.0,2500.0 -17000.0,2000.0 -17250.0,2000.0 -17750.0,2500.0000000000005 -17750.0,3250.0"/>
<polygon class="l0d0" points="-17500.0,4000.0 -17750.0,4250.0 -17750.0,5500.0 -17500.0,5750.0 -16750.0,5750.0 -15750.0,4750.0 -15750.0,5750.0 -15250.0,5750.0 -15250.0,4000.0 -15750.0,4000.0 -17000.0,5250.0 -17250.0,5250.0 -17250.0,4500.0 -17000.0,4500.0 -17000.0,4000.0 -17500.0,4000.0"/>
<polygon class="l0d0" points="-17250.0,6750.0 -17000.0,6500.0 -16000.0,6500.0 -15750.0,6750.0 -15250.0,6625.0 -15250.0,6500.0 -15750.0,6000.0 -17250.0,6000.0 -17750.0,6500.0 -17750.0,7075.0 -17250.0,6950.0 -17250.0,6750.0"/>
<polygon class="l0d0" points="-15750.0,7250.0 -16000.0,7500.0 -17000.0,7500.0 -17250.0,7250.0 -17750.0,7375.0 -17750.0,7500.0 -17250.0,8000.0 -15750.0,8000.0 -15250.0,7500.0 -15250.0,6925.0 -15750.0,7050.0 -15750.0,7250.0"/>
<polygon class="l0d0" points="-14500.0,5000.0 -14500.0,2500.0 -15000.0,2500.0 -15000.0,5000.0"/>
<polygon class="l0d0" points="-10800.0,5000.0 -10800.0,2500.0 -11300.0,2500.0 -11300.0,5000.0"/>
<polygon class="l0d0" points="-11300.0,7500.0 -11300.0,5000.0 -14500.0,5000.0 -14500.0,7500.0"/>
<polygon class="l0d0" points="-8700.0,5000.0 -8700.0,2500.0 -9200.0,2500.0 -9200.0,5000.0"/>
<polygon class="l0d0" points="-9200.0,7500.0 -9200.0,5000.0 -10800.0,5000.0 -10800.0,7500.0"/>
<polygon class="l0d0" points="-7400.0,5000.0 -7400.0,2500.0 -7900.0,2500.0 -7900.0,5000.0"/>
<polygon class="l0d0" points="-7900.0,7500.0 -7900.0,5000.0 -8700.0,5000.0 -8700.0,7500.0"/>
<polygon class="l0d0" points="-6500.0,5000.0 -6500.0,2500.0 -7000.0,2500.0 -7000.0,5000.0"/>
<polygon class="l0d0" points="-7000.0,7500.0 -7000.0,5000.0 -7400.0,5000.0 -7400.0,7500.0"/>
<polygon class="l0d0" points="-5800.0,5000.0 -5800.0,2500.0 -6300.0,2500.0 -6300.0,5000.0"/>
<polygon class="l0d0" points="-6300.0,7500.0 -6300.0,5000.0 -6500.0,5000.0 -6500.0,7500.0"/>
<polygon class="l0d0" points="-5200.0,5000.0 -5200.0,2500.0 -5700.0,2500.0 -5700.0,5000.0"/>
<polygon class="l0d0" points="-5700.0,7500.0 -5700.0,5000.0 -5800.0,5000.0 -5800.0,7500.0"/>
<polygon class="l0d0" points="-4650.0,5000.0 -4650.0,2500.0 -5150.0,2500.0 -5150.0,5000.0"/>
<polygon class="l0d0" points="-5150.0,7500.0 -5150.0,5000.0 -5200.0,5000.0 -5200.0,7500.0"/>
<polygon class="l0d0" points="200.0,6000.0 200.0,5000.0 0.0,5000.0 0.0,6000.0"/>
<polygon class="l0d0" points="340.0,5000.0 340.0,4000.0 140.0,4000.0 140.0,5000.0"/>
<polygon class="l0d0" points="800.0,6000.0 800.0,5000.0 600.0,5000.0 600.0,6000.0"/>
<polygon class="l0d0" points="920.0,5000.0 920.0,4000.0 720.0,4000.0 720.0,5000.0"/>
<polygon class="l0d0" points="1400.0,6000.0 1400.0,5000.0 1200.0,5000.0 1200.0,6000.0"/>
<polygon class="l0d0" points="1500.0,5000.0 1500.0,4000.0 1300.0,4000.0 1300.0,5000.0"/>
<polygon class="l0d0" points="2000.0,6000.0 2000.0,5000.0 1800.0,5000.0 1800.0,6000.0"/>
<polygon class="l0d0" points="2080.0,5000.0 2080.0,4000.0 1880.0,4000.0 1880.0,5000.0"/>
<polygon class="l0d0" points="2600.0,6000.0 2600.0,5000.0 2400.0,5000.0 2400.0,6000.0"/>
<polygon class="l0d0" points="2660.0,5000.0 2660.0,4000.0 2460.0,4000.0 2460.0,5000.0"/>
<polygon class="l0d0" points="3200.0,6000.0 3200.0,5000.0 3000.0,5000.0 3000.0,6000.0"/>
<polygon class="l0d0" points="3240.0,5000.0 3240.0,4000.0 3040.0,4000.0 3040.0,5000.0"/>
<polygon class="l0d0" points="3800.0,6000.0 3800.0,5000.0 3600.0,5000.0 3600.0,6000.0"/>
<polygon class="l0d0" points="3820.0,5000.0 3820.0,4000.0 3620.0,4000.0 3620.0,5000.0"/>
<polygon class="l0d0" points="4400.0,7000.0 4400.0,6000.0 4200.0,6000.0 4200.0,7000.0"/>
<polygon class="l0d0" points="4400.0,4000.0 4400.0,3000.0 4200.0,3000.0 4200.0,4000.0"/>
<polygon class="l0d0" points="4400.0,6000.0 4400.0,5000.0 4200.0,5000.0 4200.0,6000.0"/>
<polygon class="l0d0" points="4400.0,5000.0 4400.0,4000.0 4200.0,4000.0 4200.0,5000.0"/>
<polygon class="l0d0" points="5000.0,6000.0 5000.0,5000.0 4800.0,5000.0 4800.0,6000.0"/>
<polygon class="l0d0" points="4980.0,5000.0 4980.0,4000.0 4780.0,4000.0 4780.0,5000.0"/>
<polygon class="l0d0" points="5600.0,6000.0 5600.0,5000.0 5400.0,5000.0 5400.0,6000.0"/>
<polygon class="l0d0" points="5560.0,5000.0 5560.0,4000.0 5360.0,4000.0 5360.0,5000.0"/>
<polygon class="l0d0" points="6200.0,6000.0 6200.0,5000.0 6000.0,5000.0 6000.0,6000.0"/>
<polygon class="l0d0" points="6140.0,5000.0 6140.0,4000.0 5940.0,4000.0 5940.0,5000.0"/>
<polygon class="l0d0" points="6800.0,6000.0 6800.0,5000.0 6600.0,5000.0 6600.0,6000.0"/>
<polygon class="l0d0" points="6720.0,5000.0 6720.0,4000.0 6520.0,4000.0 6520.0,5000.0"/>
<polygon class="l0d0" points="7400.0,6000.0 7400.0,5000.0 7200.0,5000.0 7200.0,6000.0"/>
<polygon class="l0d0" points="7300.0,5000.0 7300.0,4000.0 7100.0,4000.0 7100.0,5000.0"/>
<polygon class="l0d0" points="8000.0,6000.0 8000.0,5000.0 7800.0,5000.0 7800.0,6000.0"/>
<polygon class="l0d0" points="7880.0,5000.0 7880.0,4000.0 7680.0,4000.0 7680.0,5000.0"/>
<polygon class="l0d0" points="8600.0,6000.0 8600.0,5000.0 8400.0,5000.0 8400.0,6000.0"/>
<polygon class="l0d0" points="8460.0,5000.0 8460.0,4000.0 8260.0,4000.0 8260.0,5000.0"/>
<polygon class="l0d0" points="10250.0,750.0 10250.0,250.0 9750.0,250.0 9750.0,750.0"/>
<polygon class="l0d0" points="15250.0,750.0 15250.0,250.0 14750.0,250.0 14750.0,750.0"/>
<polygon class="l0d0" points="15250.0,5750.0 15250.0,5250.0 14750.0,5250.0 14750.0,5750.0"/>
<polygon class="l0d0" points="10250.0,250.0 14750.0,250.0 14750.0,750.0 10250.0,750.0"/>
<polygon class="l0d0" points="15250.0,750.0 15250.0,5250.0 14750.0,5250.0 14750.0,750.0"/>
</g>
</svg>