<?xml version="1.0" encoding="UTF-8"?>
<svg xmlns="http://www.w3.org/2000/svg" xmlns:xlink="http://www.w3.org/1999/xlink"
     width="42240.0" height="25440.0" viewBox="-21120.0 -12720.0 42240.0 25440.0">
<defs>
<style type="text/css">
.l0d0 {fill: blue; stroke: black;}
</style>
</defs>
<rect x="-21120.0" y="-12720.0" width="42240.0" height="25440.0" fill="black" stroke="none"/>
<g id="extract" transform="scale(1 -1)">
<polygon class="l0d0" points="19200.0,10800.0 19200.0,8300.0 18700.0,8300.0 18700.0,10300.0 16700.0,10300.0 16700.0,10800.0"/>
<polygon class="l0d0" points="-19200.0,10800.0 -19200.0,8300.0 -18700.0,8300.0 -18700.0,10300.0 -16700.0,10300.0 -16700.0,10800.0"/>
<polygon class="l0d0" points="19200.0,-10800.0 19200.0,-8300.0 18700.0,-8300.0 18700.0,-10300.0 16700.0,-10300.0 16700.0,-10800.0"/>
<polygon class="l0d0" points="-19200.0,-10800.0 -19200.0,-8300.0 -18700.0,-8300.0 -18700.0,-10300.0 -16700.0,-10300.0 -16700.0,-10800.0"/>
<polygon class="l0d0" points="-17450.0,-10100.0 -18200.0,-10100.0 -18500.0,-9800.0 -18500.0,-9350.0 -18200.0,-9050.0 -17750.0,-9050.0 -17750.0,-8600.0 -17450.0,-8600.0 -17450.0,-9500.0 -17750.0,-9500.0 -17750.0,-9350.0 -18050.0,-9350.0 -18200.0,-9500.0 -18200.0,-9650.0 -18050.0,-9800.0 -17750.0,-9800.0 -17750.0,-9650.0 -17450.0,-9650.0 -17450.0,-10100.0"/>
<polygon class="l0d0" points="-16550.0,-9500.0 -16550.0,-9350.0 -16850.0,-9350.0 -17000.0,-9500.0 -17000.0,-10100.0 -17300.0,-10100.0 -17300.0,-9050.0 -17000.0,-9050.0 -17000.0,-9200.0 -16850.0,-9050.0 -16400.0,-9050.0 -16250.0,-9200.0 -16250.0,-9500.0 -16550.0,-9500.0"/>
<polygon class="l0d0" points="-15050.0,-9800.0 -15350.0,-10100.0 -15800.0,-10100.0 -16100.0,-9800.0 -16100.0,-9350.0 -15800.0,-9050.0 -15350.0,-9050.0 -15050.0,-9350.0 -15050.0,-9500.0 -15350.0,-9500.0 -15500.0,-9350.0 -15650.0,-9350.0 -15800.0,-9500.0 -15800.0,-9650.0 -15650.0,-9800.0 -15500.0,-9800.0 -15350.0,-9650.0 -15050.0,-9650.0 -15050.0,-9800.0"/>
<polygon class="l0d0" points="-14000.0,-9200.0 -14150.0,-9200.0 -14150.0,-8900.0 -13850.0,-8600.0 -13700.0,-8600.0 -13700.0,-9800.0 -13550.0,-9800.0 -13550.0,-10100.0 -14150.0,-10100.0 -14150.0,-9800.0 -14000.0,-9800.0 -14000.0,-9200.0 -14000.0,-9200.0"/>
<polygon class="l0d0" points="-13100.0,-9800.0 -13100.0,-10100.0 -13400.0,-10100.0 -13400.0,-9800.0 -13100.0,-9800.0"/>
<polygon class="l0d0" points="-12800.0,-9200.0 -12950.0,-9200.0 -12950.0,-8900.0 -12650.0,-8600.0 -12500.0,-8600.0 -12500.0,-9800.0 -12350.0,-9800.0 -12350.0,-10100.0 -12950.0,-10100.0 -12950.0,-9800.0 -12800.0,-9800.0 -12800.0,-9200.0 -12800.0,-9200.0"/>
</g>
</svg>